<svg xmlns="http://www.w3.org/2000/svg" viewBox="0 0 357 96" width="357" height="96">
  <path d="M 60.0 18.3 A 32 32 0 1 1 36.0 18.3 L 44.1 25.9 A 22.4 22.4 0 1 0 51.9 25.9 Z" fill="#5F7A52"/>
  <path d="M109.56 45.12V36.08H113.4C117.2 36.08 119.28 37.16 119.28 40.36C119.28 43.519999999999996 117.2 45.12 113.4 45.12ZM119.76 61.0H126.36L119.44 48.879999999999995C122.84 47.56 125.08 44.8 125.08 40.36C125.08 33.56 120.16 31.36 113.92 31.36H103.64V61.0H109.56V49.8H113.68Z M135.92000000000002 61.56C138.52 61.56 140.76 60.32 142.68 58.6H142.88L143.28 61.0H148.08V47.92C148.08 41.44 145.16 38.04 139.48 38.04C135.96 38.04 132.76 39.4 130.16 41.0L132.24 44.92C134.32 43.68 136.32 42.76 138.4 42.76C141.16 42.76 142.12 44.44 142.2 46.64C133.2 47.6 129.32 50.12 129.32 54.88C129.32 58.72 131.92 61.56 135.92000000000002 61.56ZM137.88 56.96C136.16 56.96 134.92000000000002 56.2 134.92000000000002 54.44C134.92000000000002 52.4 136.72 50.92 142.2 50.28V54.76C140.8 56.16 139.56 56.96 137.88 56.96Z M154.08 61.0H159.96V38.599999999999994H154.08ZM157.04000000000002 34.96C159.04000000000002 34.96 160.44000000000003 33.72 160.44000000000003 31.759999999999998C160.44000000000003 29.84 159.04000000000002 28.560000000000002 157.04000000000002 28.560000000000002C154.96 28.560000000000002 153.64000000000001 29.84 153.64000000000001 31.759999999999998C153.64000000000001 33.72 154.96 34.96 157.04000000000002 34.96Z M172.64000000000001 61.56C178.44 61.56 181.56 58.44 181.56 54.48C181.56 50.36 178.28 48.84 175.32000000000002 47.72C172.92000000000002 46.84 170.88000000000002 46.24 170.88000000000002 44.6C170.88000000000002 43.32 171.84 42.44 173.88000000000002 42.44C175.52 42.44 177.08 43.239999999999995 178.68 44.36L181.32000000000002 40.8C179.48000000000002 39.36 176.96 38.04 173.72000000000003 38.04C168.60000000000002 38.04 165.36 40.879999999999995 165.36 44.879999999999995C165.36 48.64 168.52 50.36 171.36 51.44C173.72000000000003 52.36 176.04000000000002 53.12 176.04000000000002 54.8C176.04000000000002 56.2 175.04000000000002 57.16 172.8 57.16C170.68 57.16 168.8 56.24 166.8 54.72L164.12 58.44C166.36 60.28 169.64000000000001 61.56 172.64000000000001 61.56Z M195.8 61.56C198.56000000000003 61.56 201.40000000000003 60.6 203.60000000000002 59.08L201.60000000000002 55.48C199.96000000000004 56.48 198.40000000000003 57.0 196.60000000000002 57.0C193.24 57.0 190.84000000000003 55.12 190.36 51.480000000000004H204.16000000000003C204.32000000000002 50.92 204.44000000000003 49.84 204.44000000000003 48.76C204.44000000000003 42.519999999999996 201.24 38.04 195.08 38.04C189.76000000000002 38.04 184.64000000000001 42.56 184.64000000000001 49.8C184.64000000000001 57.2 189.52000000000004 61.56 195.8 61.56ZM190.24000000000004 47.519999999999996C190.72000000000003 44.28 192.8 42.599999999999994 195.16000000000003 42.599999999999994C198.08 42.599999999999994 199.40000000000003 44.519999999999996 199.40000000000003 47.519999999999996Z M218.84000000000003 61.0H224.16000000000005V48.64C224.16000000000005 45.8 223.68000000000004 41.72 223.40000000000003 38.92H223.56000000000006L225.92000000000004 45.879999999999995L230.52000000000004 58.32H233.92000000000004L238.48000000000005 45.879999999999995L240.88000000000005 38.92H241.08000000000004C240.76000000000005 41.72 240.32000000000005 45.8 240.32000000000005 48.64V61.0H245.72000000000006V31.36H239.16000000000005L234.20000000000005 45.28C233.60000000000005 47.08 233.08000000000004 49.04 232.44000000000005 50.92H232.24000000000004C231.64000000000004 49.04 231.08000000000004 47.08 230.44000000000005 45.28L225.40000000000003 31.36H218.84000000000003Z M262.24000000000007 61.56C265.00000000000006 61.56 267.84000000000003 60.6 270.0400000000001 59.08L268.0400000000001 55.48C266.40000000000003 56.48 264.84000000000003 57.0 263.0400000000001 57.0C259.68000000000006 57.0 257.28000000000003 55.12 256.80000000000007 51.480000000000004H270.6C270.76000000000005 50.92 270.88000000000005 49.84 270.88000000000005 48.76C270.88000000000005 42.519999999999996 267.68000000000006 38.04 261.52000000000004 38.04C256.20000000000005 38.04 251.08000000000004 42.56 251.08000000000004 49.8C251.08000000000004 57.2 255.96000000000004 61.56 262.24000000000007 61.56ZM256.68000000000006 47.519999999999996C257.16 44.28 259.24000000000007 42.599999999999994 261.6 42.599999999999994C264.52000000000004 42.599999999999994 265.84000000000003 44.519999999999996 265.84000000000003 47.519999999999996Z M296.68000000000006 61.56C303.88000000000005 61.56 308.08000000000004 57.48 308.08000000000004 47.68V31.36H302.40000000000003V48.2C302.40000000000003 54.36 300.12000000000006 56.44 296.68000000000006 56.44C293.20000000000005 56.44 291.04 54.36 291.04 48.2V31.36H285.16V47.68C285.16 57.48 289.40000000000003 61.56 296.68000000000006 61.56Z M314.7200000000001 69.6H320.6000000000001V62.76L320.40000000000003 59.12C322.08000000000004 60.68 324.00000000000006 61.56 325.96000000000004 61.56C330.88000000000005 61.56 335.4800000000001 57.12 335.4800000000001 49.44C335.4800000000001 42.56 332.1600000000001 38.04 326.68000000000006 38.04C324.24000000000007 38.04 321.96000000000004 39.32 320.08000000000004 40.92H319.96000000000004L319.52000000000004 38.599999999999994H314.7200000000001ZM324.68000000000006 56.72C323.44000000000005 56.72 322.0400000000001 56.28 320.6000000000001 55.04V45.16C322.12000000000006 43.64 323.4800000000001 42.879999999999995 325.00000000000006 42.879999999999995C328.08000000000004 42.879999999999995 329.44000000000005 45.24 329.44000000000005 49.519999999999996C329.44000000000005 54.4 327.32000000000005 56.72 324.68000000000006 56.72Z" fill="#3D3A35"/>
</svg>
